<?xml version="1.0" encoding="UTF-8" standalone="no"?>
<!-- Created with Inkscape (http://www.inkscape.org/) -->

<svg
   width="210mm"
   height="297mm"
   viewBox="0 0 210 297"
   version="1.1"
   id="svg2541"
   xml:space="preserve"
   inkscape:version="1.2.2 (732a01da63, 2022-12-09)"
   sodipodi:docname="CrayColor_1v1.svg"
   inkscape:export-filename="Cray_1v1.png"
   inkscape:export-xdpi="96"
   inkscape:export-ydpi="96"
   xmlns:inkscape="http://www.inkscape.org/namespaces/inkscape"
   xmlns:sodipodi="http://sodipodi.sourceforge.net/DTD/sodipodi-0.dtd"
   xmlns="http://www.w3.org/2000/svg"
   xmlns:svg="http://www.w3.org/2000/svg"><sodipodi:namedview
     id="namedview2543"
     pagecolor="#ffffff"
     bordercolor="#000000"
     borderopacity="0.25"
     inkscape:showpageshadow="2"
     inkscape:pageopacity="0.0"
     inkscape:pagecheckerboard="0"
     inkscape:deskcolor="#d1d1d1"
     inkscape:document-units="mm"
     showgrid="false"
     inkscape:zoom="0.50383782"
     inkscape:cx="408.86173"
     inkscape:cy="442.60274"
     inkscape:window-width="1366"
     inkscape:window-height="745"
     inkscape:window-x="-8"
     inkscape:window-y="-8"
     inkscape:window-maximized="1"
     inkscape:current-layer="layer3" /><defs
     id="defs2538" /><g
     inkscape:groupmode="layer"
     id="layer3"
     inkscape:label="CrayLaGrenouille"><path
       id="rect5012"
       style="opacity:1;fill:#008000;stroke:#008000;stroke-width:0.190206;stroke-linejoin:round;paint-order:markers fill stroke"
       d="m 131.36846,122.19562 c -1.16859,-2.50132 0.8243,-4.18605 1.8814,-2.50309 1.0571,1.68296 0.78253,-1.75641 2.10034,-1.55348 0.27876,-0.0444 1.61026,0.63351 1.44059,4.17102 l -0.57226,0.44348 -2.63248,1.15887 z"
       sodipodi:nodetypes="czccccc"
       transform="matrix(5.2574703,-1.607974e-8,-1.0801657e-8,5.2574701,-586.1122,-546.91243)"
       inkscape:label="Pansement Bouche" /><g
       id="g4015"
       inkscape:label="CRAY"
       transform="matrix(5.2574701,0,0,5.2574701,-586.1122,-546.91246)"><path
         style="opacity:1;fill:none;stroke:#008000;stroke-width:0.4;stroke-linecap:butt;stroke-linejoin:round;stroke-dasharray:none;stroke-opacity:1;paint-order:markers fill stroke"
         d="m 123.82228,136.9451 c -2.60315,-8.83115 -11.02043,7.90482 0.38978,4.15772 1.64216,-0.53928 3.93279,-2.1119 4.05714,-3.13925"
         id="path2621"
         sodipodi:nodetypes="csc"
         inkscape:label="C" /><g
         id="g4113"
         inkscape:label="Ray Correction"
         style="stroke:#008000;stroke-opacity:1"><path
           style="opacity:1;fill:#000000;stroke:#008000;stroke-width:1;stroke-linecap:butt;stroke-linejoin:round;stroke-dasharray:none;stroke-opacity:1;paint-order:markers fill stroke"
           d="m 79.776539,176.26192 0.229335,1.03201 v 0"
           id="path4108"
           inkscape:label="pansement 1"
           transform="matrix(0.19020555,0,0,0.19020555,111.48179,104.02579)" /><path
           style="opacity:1;fill:none;stroke:#008000;stroke-width:0.4;stroke-linecap:butt;stroke-linejoin:round;stroke-dasharray:none;stroke-opacity:1;paint-order:markers fill stroke"
           d="m 126.77711,137.60732 -0.63707,-2.22975 c -0.56818,-1.98863 14.35014,-4.0902 2.07048,2.70755 0.28636,1.85061 1.01349,3.31571 3.82242,1.59268 l 1.27415,-2.78719 3.34462,2.86682 c 0.2817,0.64064 -3.38579,2.46664 -4.14097,1.75195 -1.35999,-1.2871 2.71842,-3.37628 5.97255,-3.5039 -1.16988,3.15705 0.81226,1.9363 3.42425,-0.15926 0.19587,-0.35256 3.42369,1.7399 1.59268,4.53913 -1.23588,1.88939 -4.64711,-0.61228 -6.76888,0.15927 -0.67124,0.24408 -1.59267,1.4334 -1.59267,1.4334"
           id="path2623"
           sodipodi:nodetypes="csccccsccssc"
           inkscape:label="Ray" /></g><path
         style="opacity:1;fill:#008000;stroke:#008000;stroke-width:0.372594;stroke-linecap:butt;stroke-linejoin:round;stroke-dasharray:none;stroke-opacity:1;paint-order:markers fill stroke;fill-opacity:1"
         d="m 126.78218,137.55551 0.15996,3.2412"
         id="path2625"
         sodipodi:nodetypes="cc"
         inkscape:label="R pied G" /><path
         style="opacity:1;fill:#008000;stroke:none;stroke-width:0.260365;stroke-linecap:butt;stroke-linejoin:round;stroke-dasharray:none;stroke-opacity:1;paint-order:markers fill stroke"
         id="path5074"
         sodipodi:type="arc"
         sodipodi:cx="176.81114"
         sodipodi:cy="50.812405"
         sodipodi:rx="0.80155987"
         sodipodi:ry="0.37033719"
         sodipodi:start="0.017453293"
         sodipodi:end="6.2831853"
         sodipodi:arc-type="arc"
         d="m 177.61258,50.818868 a 0.80155987,0.37033719 0 0 1 -0.81193,0.363842 0.80155987,0.37033719 0 0 1 -0.79104,-0.373537 0.80155987,0.37033719 0 0 1 0.80503,-0.367102 0.80155987,0.37033719 0 0 1 0.79806,0.370334"
         sodipodi:open="true"
         transform="matrix(0.89292066,0.45021402,-0.43756964,0.89918454,6.3401855e-7,7.5289699e-7)"
         inkscape:label="Pansement corps" /><path
         style="display:inline;fill:#00ff00;stroke:#000000;stroke-width:0.215613;stroke-linecap:butt;stroke-linejoin:round;stroke-dasharray:none;stroke-opacity:1;paint-order:markers fill stroke"
         d="m 122.48698,126.74555 c -0.71513,4.70254 6.81991,4.6109 13.23986,5.16725"
         id="path2577"
         sodipodi:nodetypes="cc"
         inkscape:label="feuille G" /><g
         id="g4024"
         inkscape:label="NENUPHAR"
         style="display:inline;fill:#ffffff"><path
           style="opacity:1;fill:#00ff00;fill-opacity:1;stroke:none;stroke-width:0.190206;stroke-linecap:butt;stroke-linejoin:round;stroke-dasharray:none;stroke-opacity:1;paint-order:markers fill stroke"
           d="m 123.35099,127.06857 1.9782,-1.17388 11.58661,-1.26083 0.99997,0.30434 c 0.87571,2.26466 -1.83379,3.46687 -2.21732,3.76075 -0.007,1.0362 -1.99859,1.94439 -0.0217,3.1086 -4.32941,-0.77911 -8.45984,-2.27953 -12.32571,-4.73898 z"
           id="path6200"
           sodipodi:nodetypes="ccccccc"
           inkscape:label="Pansement feuilles" /><path
           style="fill:#ffb1ff;stroke:#000000;stroke-width:0.215613;stroke-linecap:butt;stroke-linejoin:round;stroke-dasharray:none;stroke-opacity:1;paint-order:markers fill stroke;fill-opacity:1"
           d="m 127.44243,122.70667 c 0.27379,-1.54426 -0.99915,-1.43029 -2.45789,-3.29161 0.40476,1.83822 -0.83261,2.72837 -0.48756,4.54124 -0.0781,-1.74142 -0.82149,-1.61769 -2.67059,-3.70406 0.0496,2.6708 0.31488,3.44039 1.04589,4.32567 -0.99206,-1.88892 -2.45543,-1.9452 -4.16722,-2.5598 0.94723,3.58454 1.43012,3.78793 3.64066,4.79644 1.40686,0.34243 2.50777,0.19735 2.86081,-1.13943"
           id="path2575"
           sodipodi:nodetypes="cccccccc"
           inkscape:label="nenuphar" /><path
           style="fill:#00ff00;stroke:#000000;stroke-width:0.215613;stroke-linecap:butt;stroke-linejoin:round;stroke-dasharray:none;stroke-opacity:1;paint-order:markers fill stroke;fill-opacity:1"
           d="m 137.96332,124.86477 c 4.39179,1.16705 3.96742,3.15568 3.30046,4.20532 -1.43919,-1.55704 -3.81993,-0.8236 -5.23132,-0.54249"
           id="path2579"
           sodipodi:nodetypes="ccc"
           inkscape:label="feuille D" /><path
           style="fill:none;stroke:#000000;stroke-width:0.215613;stroke-linecap:butt;stroke-linejoin:round;stroke-dasharray:none;stroke-opacity:1;paint-order:markers fill stroke"
           d="m 122.14454,129.20206 c -0.57402,-0.41909 -1.35232,-1.34016 -2.99764,-0.46329 -1.85648,0.9894 -2.41122,0.5862 -3.70447,-0.46224"
           id="path2581"
           sodipodi:nodetypes="csc"
           inkscape:label="vague H" /><path
           style="fill:none;stroke:#000000;stroke-width:0.215613;stroke-linecap:butt;stroke-linejoin:round;stroke-dasharray:none;stroke-opacity:1;paint-order:markers fill stroke"
           d="m 127.52864,132.47551 c -1.23454,-1.56433 -2.55034,-1.25502 -4.3261,-0.2274 -1.40424,0.81264 -2.87538,0.52766 -3.96608,-0.52375"
           id="path2583"
           sodipodi:nodetypes="csc"
           inkscape:label="vague B" /></g></g><g
       id="g3109"
       transform="matrix(5.2574701,0,0,5.2574701,-586.11219,-546.91245)"
       inkscape:label="GRENOUILLE"><g
         id="g4008"
         inkscape:label="YEUX"><path
           style="fill:#008000;stroke:#000000;stroke-width:0.215613;stroke-linecap:butt;stroke-linejoin:round;stroke-dasharray:none;stroke-opacity:1;paint-order:markers fill stroke"
           d="m 131.32883,122.01286 c -6.22175,0.32618 -6.87721,4.20027 -5.52706,4.61074 3.1186,0.94812 7.3873,-0.16381 10.60775,-0.99974"
           id="path2573"
           sodipodi:nodetypes="csc"
           inkscape:label="corps"
           transform="translate(-1.268037e-6)" /><path
           style="fill:#ffffff;stroke:#000000;stroke-width:0.27199;stroke-linecap:butt;stroke-linejoin:round;stroke-dasharray:none;stroke-opacity:1;paint-order:markers fill stroke"
           d="m 136.5619,121.86725 c 0.1547,-4.18505 -2.43822,-5.11296 -2.35004,-0.17984"
           id="path2559"
           sodipodi:nodetypes="cc"
           inkscape:label="paupiere D" /><ellipse
           style="fill:#000000;stroke:#000000;stroke-width:0.215616;stroke-linecap:butt;stroke-linejoin:round;stroke-dasharray:none;stroke-opacity:1;paint-order:markers fill stroke"
           id="path2563"
           cx="-116.15917"
           cy="138.2655"
           rx="0.29422292"
           ry="0.59943813"
           transform="matrix(-0.99026258,0.13921217,0.14678856,0.98916789,0,0)"
           inkscape:label="oeil D" /><path
           style="fill:#ffffff;stroke:#000000;stroke-width:0.268923;stroke-linecap:butt;stroke-linejoin:round;stroke-dasharray:none;stroke-opacity:1;paint-order:markers fill stroke"
           d="m 133.85912,121.84444 c -0.79047,-3.90762 -3.41846,-3.30127 -2.23411,1.15315"
           id="path2561"
           sodipodi:nodetypes="cc"
           inkscape:label="paupiere G" /><ellipse
           style="fill:#000000;stroke:#000000;stroke-width:0.215638;stroke-linecap:butt;stroke-linejoin:round;stroke-dasharray:none;stroke-opacity:1;paint-order:markers fill stroke"
           id="ellipse2565"
           cx="-62.154934"
           cy="167.24016"
           rx="0.2928248"
           ry="0.60242373"
           transform="matrix(-0.89902542,0.43789645,0.45725669,0.88933476,0,0)"
           inkscape:label="oeil G" /></g><g
         id="g3991"
         inkscape:label="MAIN"><g
           id="g2615"
           transform="matrix(-0.54076086,0.07602074,0.07810517,0.52632934,214.19851,52.26702)"
           inkscape:label="Full doigt D"><path
             style="opacity:1;fill:none;stroke:#000000;stroke-width:0.4;stroke-linecap:butt;stroke-linejoin:round;stroke-dasharray:none;stroke-opacity:1;paint-order:markers fill stroke"
             d="m 165.20437,116.72247 -3.20163,0.54885"
             id="path2593"
             inkscape:label="doigt D" /><ellipse
             style="opacity:1;fill:#000000;stroke:#000000;stroke-width:0.4;stroke-linecap:butt;stroke-linejoin:round;stroke-dasharray:none;stroke-opacity:1;paint-order:markers fill stroke"
             id="path2599"
             cx="162.27136"
             cy="117.27232"
             rx="0.41220495"
             ry="0.43510523"
             inkscape:label="rond D" /></g><g
           id="g3980"
           inkscape:label="Full doigt C"><path
             style="fill:none;stroke:#000000;stroke-width:0.163202;stroke-linecap:butt;stroke-linejoin:round;stroke-dasharray:none;stroke-opacity:1;paint-order:markers fill stroke"
             d="m 133.88173,126.25247 1.26273,0.51881"
             id="path2595"
             inkscape:label="doigt C" /><ellipse
             style="fill:#000000;stroke:#000000;stroke-width:0.215616;stroke-linecap:butt;stroke-linejoin:round;stroke-dasharray:none;stroke-opacity:1;paint-order:markers fill stroke"
             id="ellipse2601"
             cx="-114.99342"
             cy="144.31131"
             rx="0.22509617"
             ry="0.23151647"
             transform="matrix(-0.99026258,0.13921217,0.14678856,0.98916789,0,0)"
             inkscape:label="rond C" /></g><g
           id="g3976"
           inkscape:label="Full doigt G"><path
             style="fill:none;stroke:#000000;stroke-width:0.183988;stroke-linecap:butt;stroke-linejoin:round;stroke-dasharray:none;stroke-opacity:1;paint-order:markers fill stroke"
             d="m 133.72334,126.27506 0.97147,1.09603"
             id="path2597"
             inkscape:label="doigt G" /><ellipse
             style="fill:#000000;stroke:#000000;stroke-width:0.215621;stroke-linecap:butt;stroke-linejoin:round;stroke-dasharray:none;stroke-opacity:1;paint-order:markers fill stroke"
             id="ellipse2603"
             cx="-100.887"
             cy="153.95552"
             rx="0.22490622"
             ry="0.23172204"
             transform="matrix(-0.97477703,0.22318098,0.23492004,0.9720147,0,0)"
             inkscape:label="rond G" /></g></g><path
         style="fill:#008000;stroke:#000000;stroke-width:0.215613;stroke-linecap:butt;stroke-linejoin:round;stroke-dasharray:none;stroke-opacity:1;paint-order:markers fill stroke"
         d="m 136.79507,122.31142 c 4.74987,1.42833 -0.0172,3.42859 -3.99721,2.03574"
         id="path2571"
         sodipodi:nodetypes="cc"
         inkscape:label="bouche"
         transform="translate(-1.268037e-6)" /><g
         id="g4004"
         inkscape:label="NEZ"
         transform="translate(-1.268037e-6)"
         style="fill:#000000;stroke:#000000;stroke-opacity:1"><ellipse
           style="fill:#000000;stroke:#000000;stroke-width:0.107812;stroke-linecap:butt;stroke-linejoin:round;stroke-dasharray:none;stroke-opacity:1;paint-order:markers fill stroke"
           id="ellipse2567"
           cx="-17.979017"
           cy="182.38924"
           rx="0.13335933"
           ry="0.33065349"
           transform="matrix(-0.75749806,0.65283741,0.67293696,0.73969983,0,0)"
           inkscape:transform-center-x="-0.53879261"
           inkscape:label="nez D" /><ellipse
           style="fill:#000000;stroke:#000000;stroke-width:0.107812;stroke-linecap:butt;stroke-linejoin:round;stroke-dasharray:none;stroke-opacity:1;paint-order:markers fill stroke"
           id="ellipse2569"
           cx="-16.882568"
           cy="181.89203"
           rx="0.13335933"
           ry="0.33065349"
           transform="matrix(-0.75749806,0.65283741,0.67293696,0.73969983,0,0)"
           inkscape:transform-center-x="-0.53879261"
           inkscape:label="nez G" /></g></g><g
       id="g4000"
       inkscape:label="CRAYON"
       transform="translate(0.08067483,0.04033741)"
       style="fill:#008000"><path
         style="display:inline;fill:#008000;stroke:#000000;stroke-width:0.215613;stroke-linecap:butt;stroke-linejoin:round;stroke-dasharray:none;stroke-opacity:1;paint-order:markers fill stroke"
         d="m 131.78882,126.8141 13.2992,6.92833 2.33698,2.8171 -3.5643,-1.2192 -16.22759,-8.28607"
         id="path2585"
         inkscape:label="crayon"
         transform="matrix(5.2574701,0,0,5.2574701,-586.1122,-546.91246)" /><path
         style="fill:#008000;stroke:#000000;stroke-width:1.13358;stroke-linecap:butt;stroke-linejoin:round;stroke-dasharray:none;stroke-opacity:1;paint-order:markers fill stroke"
         d="m 176.32495,156.02514 c -5.56472,0.98483 -7.02035,4.15487 -6.45265,8.40091"
         id="path2587"
         sodipodi:nodetypes="cc"
         inkscape:label="crayon bord" /><path
         style="fill:#008000;stroke:#000000;stroke-width:0.215613;stroke-linecap:butt;stroke-linejoin:round;stroke-dasharray:none;stroke-opacity:1;paint-order:markers fill stroke"
         d="m 143.28581,133.84833 -11.52338,-5.85091"
         id="path2591"
         inkscape:label="crayon ventre"
         transform="matrix(5.2574701,0,0,5.2574701,-586.1122,-546.91246)" /><path
         style="opacity:1;fill:#ffffff;fill-opacity:1;stroke:none;stroke-width:1;stroke-linecap:butt;stroke-linejoin:round;stroke-dasharray:none;stroke-opacity:1;paint-order:markers fill stroke"
         d="m 169.97038,164.46653 c -0.78229,-5.1078 2.36372,-7.92874 6.64,-8.37918 4.74814,6.6776 9.44135,9.11578 6.25699,10.55469 -1.07709,2.46887 -6.59503,0.0413 -12.89699,-2.17551 z"
         id="path5865"
         sodipodi:nodetypes="cccc"
         inkscape:label="Pansement crayon"
         transform="translate(-0.08067483,-0.04033741)" /><path
         style="opacity:1;fill:#008000;stroke:#008000;stroke-width:0.4;stroke-linecap:butt;stroke-linejoin:round;stroke-dasharray:none;stroke-opacity:1;paint-order:markers fill stroke"
         d="m 176.29809,167.13018 c 4.42051,-0.19119 5.2417,-3.50263 4.93621,-6.03948 2.7398,3.44239 8.67464,9.80917 8.2194,10.29866 0.35506,0.74224 -8.7514,-2.86796 -13.15561,-4.25918 z"
         id="path3858"
         sodipodi:nodetypes="cccc"
         inkscape:label="mine" /></g><text
       xml:space="preserve"
       style="font-style:normal;font-variant:normal;font-weight:normal;font-stretch:normal;font-size:5.56414px;font-family:Arial;-inkscape-font-specification:Arial;text-align:center;text-anchor:middle;display:inline;fill:#000000;stroke:none;stroke-width:2.10299;stroke-linecap:butt;stroke-linejoin:round;stroke-dasharray:none;stroke-opacity:1;paint-order:markers fill stroke"
       x="104.79219"
       y="221.30376"
       id="text3078"
       inkscape:label="Copyright"><tspan
         sodipodi:role="line"
         id="tspan3076"
         style="font-style:normal;font-variant:normal;font-weight:normal;font-stretch:normal;font-size:5.56414px;font-family:Arial;-inkscape-font-specification:Arial;stroke:none;stroke-width:2.10299"
         x="0"
         y="0">By Solène MEDINA</tspan></text></g></svg>
