<?xml version="1.0" encoding="UTF-8" standalone="no"?>
<!-- Created with Inkscape (http://www.inkscape.org/) -->

<svg
   width="210mm"
   height="297mm"
   viewBox="0 0 210 297"
   version="1.1"
   id="svg5"
   xml:space="preserve"
   inkscape:version="1.2.2 (732a01da63, 2022-12-09)"
   sodipodi:docname="immopart_vFinale2.svg"
   inkscape:export-filename="..\..\..\immopart\immopart_vFinale_Copyright.png"
   inkscape:export-xdpi="96"
   inkscape:export-ydpi="96"
   xmlns:inkscape="http://www.inkscape.org/namespaces/inkscape"
   xmlns:sodipodi="http://sodipodi.sourceforge.net/DTD/sodipodi-0.dtd"
   xmlns:xlink="http://www.w3.org/1999/xlink"
   xmlns="http://www.w3.org/2000/svg"
   xmlns:svg="http://www.w3.org/2000/svg"><sodipodi:namedview
     id="namedview7"
     pagecolor="#ffffff"
     bordercolor="#000000"
     borderopacity="0.25"
     inkscape:showpageshadow="2"
     inkscape:pageopacity="0.0"
     inkscape:pagecheckerboard="0"
     inkscape:deskcolor="#d1d1d1"
     inkscape:document-units="mm"
     showgrid="false"
     inkscape:zoom="1.1476306"
     inkscape:cx="388.6268"
     inkscape:cy="510.61728"
     inkscape:window-width="1366"
     inkscape:window-height="745"
     inkscape:window-x="-8"
     inkscape:window-y="-8"
     inkscape:window-maximized="1"
     inkscape:current-layer="g9972"><inkscape:grid
       type="xygrid"
       id="grid1896" /></sodipodi:namedview><defs
     id="defs2"><rect
       x="95.268752"
       y="144.88789"
       width="639.09455"
       height="186.56797"
       id="rect12859" /><linearGradient
       inkscape:collect="always"
       id="linearGradient9772"><stop
         style="stop-color:#462523;stop-opacity:1;"
         offset="0"
         id="stop9758" /><stop
         style="stop-color:#cb9b51;stop-opacity:1;"
         offset="0.20562389"
         id="stop9760" /><stop
         style="stop-color:#f6e27a;stop-opacity:1;"
         offset="0.39718804"
         id="stop9762" /><stop
         style="stop-color:#f6f2c0;stop-opacity:1;"
         offset="0.49560633"
         id="stop9764" /><stop
         style="stop-color:#f6e27a;stop-opacity:1;"
         offset="0.54944253"
         id="stop9766" /><stop
         style="stop-color:#cb9b51;stop-opacity:1;"
         offset="0.76487589"
         id="stop9768" /><stop
         style="stop-color:#462523;stop-opacity:1;"
         offset="1"
         id="stop9770" /></linearGradient><linearGradient
       inkscape:collect="always"
       id="linearGradient7953"><stop
         style="stop-color:#462523;stop-opacity:1;"
         offset="0"
         id="stop7939" /><stop
         style="stop-color:#cb9b51;stop-opacity:1;"
         offset="0.20562389"
         id="stop7941" /><stop
         style="stop-color:#f6e27a;stop-opacity:1;"
         offset="0.28444013"
         id="stop7943" /><stop
         style="stop-color:#f6f2c0;stop-opacity:1;"
         offset="0.35888958"
         id="stop7945" /><stop
         style="stop-color:#f6e27a;stop-opacity:1;"
         offset="0.44860908"
         id="stop7947" /><stop
         style="stop-color:#cb9b51;stop-opacity:1;"
         offset="0.88881272"
         id="stop7949" /><stop
         style="stop-color:#462523;stop-opacity:1;"
         offset="1"
         id="stop7951" /></linearGradient><linearGradient
       inkscape:collect="always"
       id="linearGradient6327"><stop
         style="stop-color:#462523;stop-opacity:1;"
         offset="0"
         id="stop6323" /><stop
         style="stop-color:#cb9b51;stop-opacity:1;"
         offset="0.20562389"
         id="stop6682" /><stop
         style="stop-color:#f6e27a;stop-opacity:1;"
         offset="0.39718804"
         id="stop6609" /><stop
         style="stop-color:#f6f2c0;stop-opacity:1;"
         offset="0.49560633"
         id="stop6538" /><stop
         style="stop-color:#f6e27a;stop-opacity:1;"
         offset="0.58523726"
         id="stop6680" /><stop
         style="stop-color:#cb9b51;stop-opacity:1;"
         offset="0.77855885"
         id="stop6753" /><stop
         style="stop-color:#462523;stop-opacity:1;"
         offset="1"
         id="stop6325" /></linearGradient><inkscape:perspective
       sodipodi:type="inkscape:persp3d"
       inkscape:vp_x="-97.256145 : 237.34413 : 1"
       inkscape:vp_y="735.59487 : 677.42168 : 0"
       inkscape:vp_z="45.002406 : 82.869188 : 1"
       inkscape:persp3d-origin="-62.538816 : 126.57428 : 1"
       id="perspective1826" /><linearGradient
       inkscape:collect="always"
       xlink:href="#linearGradient6327"
       id="linearGradient9974"
       gradientUnits="userSpaceOnUse"
       gradientTransform="matrix(1.1075417,0,0,1.1075417,21.857732,41.82674)"
       x1="51.874489"
       y1="112.15029"
       x2="57.840466"
       y2="118.49823" /><linearGradient
       inkscape:collect="always"
       xlink:href="#linearGradient6327"
       id="linearGradient9976"
       gradientUnits="userSpaceOnUse"
       gradientTransform="matrix(0.4810235,0,0,3.7758214,61.001129,-227.90894)"
       x1="42.17445"
       y1="114.57517"
       x2="44.476757"
       y2="114.57694" /><linearGradient
       inkscape:collect="always"
       xlink:href="#linearGradient7953"
       id="linearGradient9978"
       gradientUnits="userSpaceOnUse"
       x1="60.0825"
       y1="52.869484"
       x2="72.268875"
       y2="69.681839" /><linearGradient
       inkscape:collect="always"
       xlink:href="#linearGradient7953"
       id="linearGradient9980"
       gradientUnits="userSpaceOnUse"
       x1="60.0825"
       y1="52.869484"
       x2="72.268875"
       y2="69.681839" /><linearGradient
       inkscape:collect="always"
       xlink:href="#linearGradient7953"
       id="linearGradient9982"
       gradientUnits="userSpaceOnUse"
       x1="60.0825"
       y1="52.869484"
       x2="72.268875"
       y2="69.681839" /><linearGradient
       inkscape:collect="always"
       xlink:href="#linearGradient9772"
       id="linearGradient9984"
       gradientUnits="userSpaceOnUse"
       x1="99.641014"
       y1="56.018581"
       x2="97.71476"
       y2="73.469383" /><linearGradient
       inkscape:collect="always"
       xlink:href="#linearGradient9772"
       id="linearGradient9986"
       gradientUnits="userSpaceOnUse"
       x1="99.641014"
       y1="56.018581"
       x2="97.71476"
       y2="73.469383" /><linearGradient
       inkscape:collect="always"
       xlink:href="#linearGradient9772"
       id="linearGradient9988"
       gradientUnits="userSpaceOnUse"
       x1="99.641014"
       y1="56.018581"
       x2="97.71476"
       y2="73.469383" /><linearGradient
       inkscape:collect="always"
       xlink:href="#linearGradient9772"
       id="linearGradient9990"
       gradientUnits="userSpaceOnUse"
       x1="99.641014"
       y1="56.018581"
       x2="97.71476"
       y2="73.469383" /></defs><g
     inkscape:label="Base"
     inkscape:groupmode="layer"
     id="layer1"
     style="display:inline"><g
       inkscape:groupmode="layer"
       id="layer2"
       inkscape:label="Illus"
       style="display:inline;opacity:1;fill:none;stroke:#000000;stroke-opacity:1" /><text
       xml:space="preserve"
       style="font-weight:bold;font-size:14.8167px;font-family:'Playfair Display';-inkscape-font-specification:'Playfair Display Bold';text-align:center;opacity:1;fill:#000000;fill-opacity:1;stroke:#000000;stroke-width:0.775999;stroke-linecap:square;stroke-linejoin:miter;stroke-dasharray:none;stroke-opacity:1;paint-order:markers fill stroke;stop-color:#000000"
       x="64.916344"
       y="-25.143654"
       id="text2276"><tspan
         sodipodi:role="line"
         id="tspan2274"
         style="stroke-width:0.776"
         x="64.916344"
         y="-25.143654">L'immobilier qui a du sens</tspan></text><g
       id="g9972"
       transform="translate(-30.622248,-50.287725)"><rect
         style="opacity:1;fill:#ffffff;fill-opacity:1;stroke:#ffffff;stroke-width:0;stroke-linecap:square;stroke-linejoin:miter;stroke-dasharray:none;stroke-opacity:1;paint-order:markers fill stroke;stop-color:#000000"
         id="rect12442"
         width="182.74731"
         height="124.45721"
         x="43.22551"
         y="142.18652" /><path
         style="fill:none;fill-opacity:0.196721;stroke:#000000;stroke-width:0.657711;stroke-linecap:round;stroke-linejoin:round;stroke-dasharray:none;stroke-opacity:1;paint-order:markers fill stroke;stop-color:#000000"
         d="m 150.62798,213.90113 -0.0564,8.85811"
         id="path9922" /><rect
         style="display:inline;fill:#000000;fill-opacity:1;stroke:#000000;stroke-width:0.928146;stroke-linecap:round;stroke-linejoin:miter;stroke-dasharray:none;stroke-opacity:1;paint-order:markers fill stroke;stop-color:#000000"
         id="rect9924"
         width="11.555079"
         height="49.735142"
         x="70.18644"
         y="182.29291" /><path
         id="path9926"
         style="display:inline;fill:#000000;fill-opacity:1;stroke:#000000;stroke-width:0.922336;stroke-linecap:square;stroke-linejoin:miter;stroke-opacity:1;paint-order:markers fill stroke;stop-color:#000000"
         d="m 82.011376,182.47447 10.139424,-9.3534 -0.37687,48.78756 -9.036481,9.48099 z"
         sodipodi:nodetypes="ccccc" /><path
         id="path9928"
         style="display:inline;fill:#000000;fill-opacity:1;stroke:#000000;stroke-width:0.610465;stroke-linecap:round;stroke-linejoin:miter;stroke-opacity:1;paint-order:markers fill stroke;stop-color:#000000"
         d="m 80.200963,172.25946 11.692645,0.0807 -10.113673,9.75123 -11.371716,-0.48409 z"
         sodipodi:nodetypes="ccccc" /><path
         id="path9930"
         style="display:inline;fill:url(#linearGradient9974);fill-opacity:1;stroke:none;stroke-width:0.736515;stroke-linecap:round;stroke-linejoin:round;stroke-dasharray:none;stroke-opacity:1;paint-order:markers fill stroke;stop-color:#000000"
         d="M 80.584376,164.47858 H 95.136388 L 82.4903,176.34634 H 68.374361 Z"
         sodipodi:nodetypes="ccccc" /><path
         id="path9932"
         style="display:inline;fill:url(#linearGradient9976);fill-opacity:1;stroke:none;stroke-width:0.896209;stroke-linecap:round;stroke-linejoin:round;stroke-dasharray:none;stroke-opacity:1;paint-order:markers fill stroke;stop-color:#000000"
         d="m 81.238622,182.25387 c 0.449447,0.0583 0.89897,0.11669 1.243435,-0.035 l -0.07122,50.25737 -1.207176,-0.017 z"
         sodipodi:nodetypes="ccccc" /><g
         id="g9938"
         transform="translate(40.091411,150.58725)"
         style="fill:none;stroke:url(#linearGradient9982)"><path
           style="opacity:1;fill:none;fill-opacity:0.196721;stroke:url(#linearGradient9978);stroke-width:0.775999;stroke-linecap:round;stroke-linejoin:round;stroke-dasharray:none;stroke-opacity:1;paint-order:markers fill stroke;stop-color:#000000"
           d="m 52.383544,63.370056 5.539409,-6.261942 4.094345,6.382365 -0.120422,8.549957"
           id="path9934" /><path
           style="opacity:1;fill:none;fill-opacity:0.196721;stroke:url(#linearGradient9980);stroke-width:0.775999;stroke-linecap:round;stroke-linejoin:round;stroke-dasharray:none;stroke-opacity:1;paint-order:markers fill stroke;stop-color:#000000"
           d="m 62.034306,63.370057 5.539409,-6.261942 4.094345,6.382364 -0.120422,8.549958"
           id="path9936" /></g><g
         id="g9946"
         transform="translate(36.24753,150.60167)"
         style="fill:none;fill-opacity:1;stroke:url(#linearGradient9990)"><g
           id="g9944"
           transform="translate(26.190738,-0.13263888)"
           style="fill:none;fill-opacity:1;stroke:url(#linearGradient9988)"><path
             style="opacity:1;fill:none;fill-opacity:1;stroke:url(#linearGradient9984);stroke-width:0.775999;stroke-linecap:round;stroke-linejoin:round;stroke-dasharray:none;stroke-opacity:1;paint-order:markers fill stroke;stop-color:#000000"
             d="m 61.896876,72.040436 0.120422,-8.549957 -4.094345,-6.382365 -5.539409,6.261942 -0.08328,0.226045 -0.169085,8.623366"
             id="path9940"
             sodipodi:nodetypes="cccccc" /><path
             style="opacity:1;fill:none;fill-opacity:1;stroke:url(#linearGradient9986);stroke-width:0.775999;stroke-linecap:round;stroke-linejoin:round;stroke-dasharray:none;stroke-opacity:1;paint-order:markers fill stroke;stop-color:#000000"
             d="m 62.034306,63.370057 5.539409,-6.261942 4.094345,6.382364 -0.120422,8.549958"
             id="path9942" /></g></g><path
         style="fill:none;fill-opacity:0.196721;stroke:#000000;stroke-width:0.719;stroke-linecap:round;stroke-linejoin:round;stroke-dasharray:none;stroke-opacity:1;paint-order:markers fill stroke;stop-color:#000000"
         id="path9948"
         sodipodi:type="arc"
         sodipodi:cx="142.17078"
         sodipodi:cy="215.11317"
         sodipodi:rx="5.1725488"
         sodipodi:ry="7.4606528"
         sodipodi:start="0.017453293"
         sodipodi:end="6.2831853"
         sodipodi:open="true"
         sodipodi:arc-type="arc"
         d="m 147.34254,215.24338 a 5.1725488,7.4606528 0 0 1 -5.23947,7.32981 5.1725488,7.4606528 0 0 1 -5.10465,-7.52512 5.1725488,7.4606528 0 0 1 5.19493,-7.39548 5.1725488,7.4606528 0 0 1 5.14998,7.46058" /><path
         style="fill:none;fill-opacity:0.196721;stroke:#000000;stroke-width:0.775999;stroke-linecap:round;stroke-linejoin:round;stroke-dasharray:none;stroke-opacity:1;paint-order:markers fill stroke;stop-color:#000000"
         d="m 150.66601,213.83081 5.53941,-6.39143 4.09434,6.38237 -9.65429,5.52015"
         id="path9950"
         sodipodi:nodetypes="cccc" /><g
         id="g9956"
         transform="translate(40.091411,150.58725)"><path
           style="opacity:1;fill:none;fill-opacity:0.196721;stroke:#000000;stroke-width:0.766898;stroke-linecap:round;stroke-linejoin:round;stroke-dasharray:none;stroke-opacity:1;paint-order:markers fill stroke;stop-color:#000000"
           d="m 121.49386,72.107489 5.0301,-15.09025 7.42536,15.569305"
           id="path9952" /><path
           style="opacity:1;fill:none;fill-opacity:0.196721;stroke:#000000;stroke-width:0.775999;stroke-linecap:round;stroke-linejoin:round;stroke-dasharray:none;stroke-opacity:1;paint-order:markers fill stroke;stop-color:#000000"
           d="m 122.85087,67.920181 8.78891,-0.06462"
           id="path9954" /></g><path
         style="fill:none;fill-opacity:0.196721;stroke:#000000;stroke-width:0.775999;stroke-linecap:round;stroke-linejoin:round;stroke-dasharray:none;stroke-opacity:1;paint-order:markers fill stroke;stop-color:#000000"
         d="m 178.32618,223.21508 0.0136,-15.32838 c 6.9873,-0.85565 7.05624,2.73255 6.95982,6.03781 -0.0939,3.22011 -4.10851,3.8437 -7.05381,2.53957 l 6.96818,6.76874"
         id="path9958"
         sodipodi:nodetypes="ccscc" /><g
         id="g9964"
         transform="translate(40.091411,150.58725)"><path
           style="opacity:1;fill:none;fill-opacity:0.196721;stroke:#000000;stroke-width:0.775999;stroke-linecap:round;stroke-linejoin:round;stroke-dasharray:none;stroke-opacity:1;paint-order:markers fill stroke;stop-color:#000000"
           d="m 152.09942,57.126782 -0.0101,15.510053"
           id="path9960" /><path
           style="opacity:1;fill:none;fill-opacity:0.196721;stroke:#000000;stroke-width:0.675576;stroke-linecap:round;stroke-linejoin:round;stroke-dasharray:none;stroke-opacity:1;paint-order:markers fill stroke;stop-color:#000000"
           d="m 157.88736,57.069832 -11.53695,0.01698"
           id="path9962" /></g><path
         style="fill:#000000;fill-opacity:1;stroke:#000000;stroke-width:0.345156;stroke-linecap:square;stroke-linejoin:miter;stroke-dasharray:none;stroke-opacity:1;paint-order:markers fill stroke;stop-color:#000000"
         d="m 199.50039,203.73473 2.35493,-1.24287 c 1.34525,3.37178 0.88824,4.7811 -0.0439,5.96117 l -2.40135,1.07065 c 0.98481,-1.37932 2.1082,-3.13718 0.0903,-5.78895 z"
         id="path9966"
         sodipodi:nodetypes="ccccc" /><g
         aria-label="Votre avenir, notre engagement"
         id="text9970"
         style="font-weight:bold;font-size:7.40833px;font-family:'Playfair Display';-inkscape-font-specification:'Playfair Display, Bold';text-align:center;stroke:#000000;stroke-width:0.775999;stroke-linecap:square;paint-order:markers fill stroke;stop-color:#000000"><g
           id="g11812"
           transform="matrix(0.91937899,0,0,1.0059941,7.0725747,-1.3733133)"><path
             d="m 96.171795,226.09833 -0.14817,0.14817 q -0.222284,0.0559 -0.607482,0.25199 -0.37782,0.1963 -0.955675,0.61532 l -5.793307,4.19741 q -0.05227,-0.008 -0.118942,-0.01 -0.06668,-0.001 -0.13335,-0.003 -0.05927,-10e-4 -0.125942,-0.003 -0.06667,-0.001 -0.132941,0.004 l 2.748486,-4.67718 q 0.162983,-0.26887 0.133351,-0.36782 -0.02222,-0.10636 -0.125946,-0.11609 l 0.14817,-0.14817 q 0.21525,0.0117 0.503783,0.0257 0.296741,0.0134 0.600483,0.0197 0.340783,0.007 0.644116,0.006 0.310742,-6.4e-4 0.50375,-0.005 l -0.14817,0.14817 q -0.244066,0.002 -0.429716,0.0515 -0.17785,0.0417 -0.325967,0.17469 -0.14076,0.12563 -0.29634,0.38711 l -2.081734,3.45829 -0.340785,0.18195 3.77825,-2.73448 q 0.755645,-0.55143 1.081613,-0.86984 0.32596,-0.3184 0.303745,-0.46258 -0.02222,-0.14417 -0.318565,-0.15793 l 0.14817,-0.14817 q 0.244883,0.0123 0.459333,0.0247 0.21525,0.0116 0.444908,0.0165 0.162984,0.003 0.310742,-6.3e-4 0.155167,-0.004 0.274092,-0.009 z"
             style="stroke-width:0.784085"
             id="path10094" /><path
             d="m 96.77936,227.35606 q 0.540808,0.0113 0.748236,0.21989 0.207439,0.20856 -0.0074,0.65787 -0.214842,0.44931 -0.948272,1.18274 -0.73342,0.73342 -1.407578,1.17311 -0.666748,0.43228 -1.274237,0.62377 -0.607478,0.19149 -1.148286,0.18016 -0.525991,-0.011 -0.740838,-0.21973 -0.207428,-0.20856 -0.0074,-0.65062 0.214841,-0.44931 0.948261,-1.18273 0.73343,-0.73343 1.407589,-1.17312 0.681566,-0.43953 1.289044,-0.63102 0.614897,-0.19134 1.140888,-0.18032 z m -0.14817,0.14817 q -0.296333,-0.006 -0.940858,0.4341 -0.637115,0.4329 -1.629835,1.42562 -0.99271,0.99271 -1.229785,1.434 -0.237065,0.44128 0.05927,0.44749 0.303742,0.006 0.933448,-0.42669 0.637125,-0.43291 1.629835,-1.42562 0.99272,-0.99272 1.229785,-1.434 0.251884,-0.44854 -0.05186,-0.4549 z"
             style="stroke-width:0.784085"
             id="path10096" /><path
             d="m 101.9214,226.25155 -1.21497,1.21497 0.87418,0.0183 -0.14817,0.14817 -0.87419,-0.0183 -2.992954,2.99296 q -0.22225,0.22225 -0.23707,0.32027 -0.0074,0.0906 0.155574,0.094 0.13335,0.003 0.363,-0.0907 0.23706,-0.10091 0.585257,-0.34322 l 0.05924,0.0693 q -0.451904,0.33089 -0.911219,0.5406 -0.451906,0.20988 -0.866773,0.20119 -0.244475,-0.005 -0.362983,-0.0757 -0.125908,-0.0632 -0.12594,-0.19173 -3e-6,-0.16639 0.185209,-0.40455 0.19261,-0.24556 0.57785,-0.6308 l 2.50401,-2.50401 -0.622299,-0.013 0.14817,-0.14817 0.622299,0.013 0.977899,-0.9779 q 0.31116,0.007 0.62235,-0.04 0.326,-0.0537 0.68157,-0.17481 z"
             style="stroke:#000000;stroke-width:0.784085;stroke-opacity:1"
             id="path10098" /><path
             d="m 105.4988,227.37569 q 0.23707,0.005 0.28151,0.11179 0.0519,0.0994 -0.037,0.25638 -0.0815,0.15713 -0.25187,0.32752 -0.27411,0.27411 -0.61489,0.4485 -0.32597,0.16713 -0.58526,0.1617 -0.25929,-0.005 -0.28152,-0.13448 -0.007,-0.1363 0.20743,-0.35114 0.20744,-0.20744 0.42969,-0.33892 0.23706,-0.13875 0.47413,-0.2321 -0.0741,-0.0318 -0.21443,0.003 -0.16296,0.0192 -0.38524,0.11295 -0.21484,0.0863 -0.4445,0.22516 -0.22225,0.13149 -0.43709,0.29338 -0.20747,0.15449 -0.35564,0.30266 l -1.96321,1.96321 q -0.3556,0.3556 -0.31115,0.4851 0.0519,0.12967 0.40005,0.13696 l -0.15558,0.15558 q -0.16339,-0.0106 -0.48156,-0.0252 -0.31116,-0.0216 -0.66676,-0.0291 -0.29635,-0.006 -0.61489,0.002 -0.31074,6.4e-4 -0.47411,0.005 l 0.15558,-0.15558 q 0.25929,0.005 0.47412,-0.10352 0.22226,-0.1088 0.53342,-0.41995 l 2.33362,-2.33362 q 0.33338,-0.33338 0.38523,-0.49112 0.0667,-0.16501 -0.20742,-0.17075 l 0.15557,-0.15557 q 0.21486,0.0272 0.43711,0.0318 0.31115,0.007 0.60005,-0.0101 0.30371,-0.0239 0.58527,-0.0709 l -0.68897,0.68897 q 0.28892,-0.19816 0.60008,-0.35805 0.31114,-0.15988 0.59266,-0.24474 0.28891,-0.0923 0.52598,-0.0873 z"
             style="stroke-width:0.784085"
             id="path10100" /><path
             d="m 109.05292,227.35962 q 0.65193,0.0137 0.63576,0.40666 -0.0162,0.39298 -0.8934,1.26716 l -2.43734,-0.0511 0.12645,-0.14107 1.5187,0.0318 q 0.37127,-0.36285 0.62468,-0.66768 0.26034,-0.31224 0.33511,-0.49976 0.0747,-0.18754 -0.11048,-0.19142 -0.25929,-0.005 -0.77159,0.31665 -0.50491,0.32225 -1.30025,1.07712 l -0.0224,0.045 q -0.0962,0.0888 -0.20066,0.1849 -0.0966,0.0963 -0.20072,0.20002 -0.51297,0.51118 -0.69188,0.83269 -0.17151,0.32167 -0.0979,0.47448 0.081,0.14542 0.31065,0.15023 0.15557,0.003 0.36322,-0.0378 0.22247,-0.0483 0.5192,-0.17066 0.30421,-0.12978 0.69028,-0.36375 l 0.0888,0.0472 q -0.3714,0.27965 -0.83165,0.54232 -0.46026,0.26266 -0.92757,0.42685 -0.46732,0.16418 -0.88219,0.15549 -0.50377,-0.0105 -0.67341,-0.23346 -0.16964,-0.22291 0.0467,-0.66466 0.22378,-0.44159 0.9003,-1.11575 0.69139,-0.68898 1.38195,-1.14348 0.698,-0.45435 1.32849,-0.66807 0.64533,-0.22097 1.17132,-0.20995 z"
             style="stroke-width:0.784113"
             id="path10102" /></g><g
           id="g11829"
           transform="matrix(0.91937899,0,0,1.0059941,4.1535463,-1.3733133)"><path
             d="m 112.68063,231.32366 q -0.33337,-0.007 -0.42968,-0.13758 -0.0963,-0.13059 0.007,-0.3402 0.11112,-0.21701 0.36301,-0.4689 0.31855,-0.31855 0.65934,-0.51563 0.34819,-0.19692 0.7038,-0.31806 0.3556,-0.12112 0.68897,-0.19734 0.34079,-0.0761 0.64452,-0.14533 0.31856,-0.0765 0.56303,-0.17729 0.2593,-0.10803 0.42969,-0.27842 l 0.57785,-0.57785 q 0.19262,-0.19262 0.27408,-0.34218 0.0963,-0.15682 0.0445,-0.2411 -0.0444,-0.0841 -0.25188,-0.0885 -0.14816,-0.003 -0.34073,0.0382 -0.18517,0.0339 -0.37782,0.12823 0.13333,0.0784 0.0889,0.23633 -0.0296,0.15064 -0.22224,0.34326 -0.25188,0.25188 -0.57785,0.39633 -0.31857,0.1446 -0.55563,0.13963 -0.2667,-0.006 -0.24447,-0.17152 0.037,-0.17318 0.2741,-0.41024 0.21485,-0.21485 0.45932,-0.35343 0.25188,-0.13843 0.57044,-0.26034 0.32597,-0.11419 0.68157,-0.17481 0.36303,-0.0605 0.70381,-0.0534 0.34079,0.007 0.54079,0.087 0.20741,0.0725 0.20744,0.26151 0,0.17395 -0.20002,0.42692 -0.19258,0.24557 -0.5704,0.62339 l -2.01507,2.01507 q -0.18521,0.18521 -0.22229,0.26006 -0.0297,0.0675 0.0592,0.0693 0.0667,0.001 0.16304,-0.0345 0.1037,-0.0356 0.22966,-0.0859 l -0.0519,0.1275 q -0.28893,0.13009 -0.57044,0.19983 -0.26673,0.0625 -0.51861,0.0572 -0.27411,-0.006 -0.36299,-0.0833 -0.0815,-0.0849 -0.0222,-0.2198 0.0666,-0.13475 0.24445,-0.31255 -0.45932,0.2778 -0.87419,0.4355 -0.40745,0.15029 -0.77046,0.14269 z m 1.00012,-0.46311 q 0.14817,0.003 0.3334,-0.0611 0.20004,-0.0715 0.47414,-0.23211 l 1.51871,-1.51871 q -0.17783,0.10973 -0.38524,0.19615 -0.20743,0.0864 -0.43709,0.17994 -0.22225,0.0861 -0.45931,0.19458 -0.22967,0.10865 -0.46673,0.27008 -0.23708,0.16143 -0.46674,0.39109 -0.28893,0.28893 -0.30374,0.43232 -0.0148,0.14339 0.19261,0.14774 z"
             style="stroke-width:0.784085"
             id="path10104" /><path
             d="m 123.05679,227.49982 -0.14817,0.14817 q -0.17776,0.0341 -0.4445,0.17221 -0.25929,0.13071 -0.70378,0.45419 l -4.14126,3.03698 q -0.11153,-0.009 -0.23747,-0.0121 -0.11854,-0.002 -0.24407,0.002 l 1.9558,-3.30211 q 0.17038,-0.2914 0.11112,-0.35315 -0.0444,-0.069 -0.12592,-0.0707 l 0.15557,-0.15557 q 0.22227,0.0198 0.45935,0.0398 0.2523,0.0124 0.55604,0.0188 0.22966,0.005 0.48854,0.003 0.27409,-0.009 0.51114,-0.0195 l -0.15557,0.15557 q -0.15557,-0.003 -0.29632,0.009 -0.13333,0.0123 -0.25928,0.0929 -0.1259,0.0806 -0.27412,0.28923 l -1.42982,2.31475 -0.17781,0.10216 2.20768,-1.61016 q 0.54081,-0.39711 0.77046,-0.64945 0.2371,-0.25977 0.22226,-0.38866 -0.007,-0.13629 -0.22967,-0.15607 l 0.14817,-0.14817 q 0.10413,0.009 0.22227,0.0198 0.13335,0.003 0.24488,0.0123 0.12594,0.003 0.22225,0.005 0.14817,0.003 0.31815,-4.9e-4 0.16998,-0.004 0.27409,-0.009 z"
             style="stroke-width:0.784085"
             id="path10106" /><path
             d="m 125.75984,227.35962 q 0.65193,0.0137 0.63711,0.40666 -0.0148,0.39298 -0.889,1.26716 l -2.43734,-0.0511 0.12596,-0.14107 1.5187,0.0318 q 0.37,-0.36285 0.62235,-0.66768 0.25925,-0.31224 0.33337,-0.49976 0.0741,-0.18754 -0.11112,-0.19142 -0.2593,-0.005 -0.77046,0.31665 -0.50377,0.32225 -1.29646,1.07712 l -0.0223,0.045 q -0.0959,0.0888 -0.20001,0.1849 -0.0963,0.0963 -0.20002,0.20002 -0.51118,0.51118 -0.68898,0.83269 -0.17039,0.32167 -0.0963,0.47448 0.0815,0.14542 0.31115,0.15023 0.15557,0.003 0.36305,-0.0378 0.2223,-0.0483 0.51859,-0.17066 0.30374,-0.12978 0.68898,-0.36375 l 0.0889,0.0472 q -0.37042,0.27965 -0.82974,0.54232 -0.45932,0.26266 -0.92604,0.42685 -0.46672,0.16418 -0.88159,0.15549 -0.50377,-0.0105 -0.67416,-0.23346 -0.17039,-0.22291 0.0444,-0.66466 0.22225,-0.44159 0.89641,-1.11575 0.68898,-0.68898 1.37794,-1.14348 0.69639,-0.45435 1.3261,-0.66807 0.64453,-0.22097 1.17052,-0.20995 z"
             style="stroke-width:0.784085"
             id="path10108" /><path
             d="m 130.87355,227.36902 q 0.31115,0.007 0.42227,0.0921 0.12592,0.0783 0.1037,0.21396 -0.0222,0.14324 -0.19261,0.36658 -0.16295,0.22349 -0.54077,0.60131 l -1.99284,1.99284 q -0.31115,0.31115 -0.31856,0.42445 0,0.11345 0.2593,0.11888 l -0.15558,0.15558 q -0.13376,-0.01 -0.40748,-0.0236 -0.26672,-0.0207 -0.54082,-0.0264 -0.28152,-0.006 -0.57043,0.003 -0.2737,0.001 -0.42226,0.006 l 0.15558,-0.15558 q 0.22225,0.005 0.42227,-0.1046 0.20003,-0.10927 0.51118,-0.42042 l 2.30399,-2.30399 q 0.18521,-0.18521 0.28156,-0.31933 0.10376,-0.14154 0.0815,-0.21764 -0.0148,-0.0835 -0.20742,-0.0875 -0.20003,-0.004 -0.48154,0.10336 -0.27411,0.10772 -0.57785,0.30557 -0.28892,0.1906 -0.5334,0.43508 l -2.05951,2.05951 q -0.31115,0.31115 -0.33338,0.42414 -0.0148,0.11314 0.20003,0.11764 l -0.15558,0.15558 q -0.12635,-0.01 -0.37784,-0.023 -0.23708,-0.0201 -0.51119,-0.0258 -0.28152,-0.006 -0.59265,0.003 -0.30333,7.9e-4 -0.4593,0.005 l 0.15558,-0.15558 q 0.25929,0.005 0.47413,-0.10352 0.22225,-0.1088 0.5334,-0.41995 l 2.33362,-2.33362 q 0.33338,-0.33338 0.38524,-0.49112 0.0667,-0.16501 -0.20743,-0.17075 l 0.15557,-0.15557 q 0.21487,0.0272 0.43712,0.0318 0.31115,0.007 0.60005,-0.0101 0.3037,-0.0239 0.58526,-0.0709 l -0.66675,0.66675 q 0.56304,-0.37395 1.03717,-0.52285 0.47414,-0.14891 0.86678,-0.14068 z"
             style="stroke-width:0.784085"
             id="path10110" /><path
             d="m 136.09246,225.5475 q 0.31115,0.007 0.33337,0.16582 0.037,0.15204 -0.22965,0.41874 -0.2667,0.2667 -0.60749,0.4184 -0.32596,0.14444 -0.63711,0.13792 -0.31115,-0.007 -0.3482,-0.15856 -0.0222,-0.1593 0.24448,-0.426 0.2667,-0.2667 0.59266,-0.41114 0.34079,-0.1517 0.65194,-0.14518 z m -1.25201,1.84196 -3.22262,3.22262 q -0.31115,0.31115 -0.31856,0.42446 0,0.11344 0.25929,0.11887 l -0.15558,0.15558 q -0.12635,-0.01 -0.40006,-0.0235 -0.26672,-0.0207 -0.55564,-0.0267 -0.28893,-0.006 -0.60006,0.003 -0.30334,7.9e-4 -0.4593,0.005 l 0.15558,-0.15558 q 0.25929,0.005 0.47413,-0.10352 0.22225,-0.1088 0.5334,-0.41995 l 2.33362,-2.33362 q 0.33338,-0.33338 0.38523,-0.49113 0.0667,-0.165 -0.20742,-0.17074 l 0.15557,-0.15557 q 0.21486,0.0272 0.43711,0.0318 0.31115,0.007 0.60005,-0.0101 0.30371,-0.0239 0.58527,-0.0709 z"
             style="stroke-width:0.784085"
             id="path10112" /><path
             d="m 139.00064,227.37569 q 0.23707,0.005 0.28151,0.11179 0.0519,0.0994 -0.037,0.25638 -0.0815,0.15713 -0.25187,0.32752 -0.27411,0.27411 -0.6149,0.4485 -0.32596,0.16713 -0.58525,0.1617 -0.25929,-0.005 -0.28152,-0.13448 -0.007,-0.1363 0.20743,-0.35114 0.20744,-0.20744 0.42969,-0.33892 0.23706,-0.13875 0.47413,-0.2321 -0.0741,-0.0318 -0.21444,0.003 -0.16295,0.0192 -0.38524,0.11295 -0.21484,0.0863 -0.4445,0.22516 -0.22225,0.13149 -0.43709,0.29338 -0.20747,0.15449 -0.35564,0.30266 l -1.96321,1.96321 q -0.3556,0.3556 -0.31115,0.4851 0.0519,0.12967 0.40005,0.13696 l -0.15558,0.15558 q -0.16339,-0.0106 -0.48156,-0.0252 -0.31117,-0.0216 -0.66677,-0.0291 -0.29633,-0.006 -0.61487,0.002 -0.31074,6.4e-4 -0.47412,0.005 l 0.15558,-0.15558 q 0.25929,0.005 0.47413,-0.10352 0.22226,-0.1088 0.53341,-0.41995 l 2.33362,-2.33362 q 0.33338,-0.33338 0.38523,-0.49112 0.0667,-0.16501 -0.20743,-0.17075 l 0.15557,-0.15557 q 0.21487,0.0272 0.43712,0.0318 0.31115,0.007 0.60005,-0.0101 0.30371,-0.0239 0.58527,-0.0709 l -0.68897,0.68897 q 0.28892,-0.19816 0.60007,-0.35805 0.31115,-0.15988 0.59267,-0.24474 0.28891,-0.0923 0.52598,-0.0873 z"
             style="stroke-width:0.784085"
             id="path10114" /><path
             d="m 137.56038,230.25187 q 0.18521,0.004 0.25186,0.0734 0.0667,0.0695 0.0148,0.19695 -0.0222,0.10543 -0.15557,0.2766 -0.12589,0.17132 -0.29628,0.34171 -0.37042,0.37042 -0.87419,0.67753 -0.50377,0.31468 -1.08903,0.49151 l 0.0667,-0.13474 q 0.29633,-0.0846 0.64452,-0.26635 0.3482,-0.1818 0.57045,-0.3738 0.19998,-0.1622 0.31115,-0.31115 -0.34078,0.17439 -0.60748,0.1688 -0.2593,-0.005 -0.27412,-0.157 -0.007,-0.159 0.2593,-0.4257 0.25929,-0.25929 0.58525,-0.41129 0.33338,-0.15186 0.59267,-0.14642 z"
             style="stroke-width:0.784085"
             id="path10116" /></g><g
           id="g11805"
           transform="matrix(0.91937899,0,0,1.0059941,10.478108,-1.3733133)"><path
             d="m 139.70141,227.36902 q 0.31115,0.007 0.42227,0.0921 0.12592,0.0783 0.10371,0.21396 -0.0222,0.14324 -0.19262,0.36658 -0.16295,0.22349 -0.54077,0.60131 l -1.99284,1.99284 q -0.31115,0.31115 -0.31857,0.42445 1e-5,0.11345 0.2593,0.11888 l -0.15558,0.15558 q -0.13376,-0.01 -0.40747,-0.0236 -0.26672,-0.0207 -0.54083,-0.0264 -0.28152,-0.006 -0.57042,0.003 -0.2737,0.001 -0.42226,0.006 l 0.15558,-0.15558 q 0.22225,0.005 0.42227,-0.1046 0.20003,-0.10927 0.51118,-0.42042 l 2.30399,-2.30399 q 0.18521,-0.18521 0.28156,-0.31933 0.10376,-0.14154 0.0815,-0.21764 -0.0148,-0.0835 -0.20743,-0.0875 -0.20002,-0.004 -0.48153,0.10336 -0.27412,0.10772 -0.57785,0.30557 -0.28892,0.1906 -0.5334,0.43508 l -2.05951,2.05951 q -0.31115,0.31115 -0.33338,0.42414 -0.0148,0.11314 0.20003,0.11764 l -0.15558,0.15558 q -0.12635,-0.01 -0.37784,-0.023 -0.23709,-0.0201 -0.5112,-0.0258 -0.28151,-0.006 -0.59265,0.003 -0.30333,7.9e-4 -0.4593,0.005 l 0.15558,-0.15558 q 0.2593,0.005 0.47413,-0.10352 0.22226,-0.1088 0.53341,-0.41995 l 2.33362,-2.33362 q 0.33338,-0.33338 0.38523,-0.49112 0.0667,-0.16501 -0.20743,-0.17075 l 0.15557,-0.15557 q 0.21487,0.0272 0.43712,0.0318 0.31115,0.007 0.60005,-0.0101 0.30371,-0.0239 0.58527,-0.0709 l -0.66675,0.66675 q 0.56304,-0.37395 1.03716,-0.52285 0.47414,-0.14891 0.86678,-0.14068 z"
             style="stroke-width:0.784085"
             id="path10118" /><path
             d="m 143.37678,227.35606 q 0.54081,0.0113 0.74824,0.21989 0.20744,0.20856 -0.007,0.65787 -0.21484,0.44931 -0.94827,1.18274 -0.73342,0.73342 -1.40758,1.17311 -0.66674,0.43228 -1.27423,0.62377 -0.60748,0.19149 -1.14829,0.18016 -0.52599,-0.011 -0.74084,-0.21973 -0.20742,-0.20856 -0.007,-0.65062 0.21484,-0.44931 0.94826,-1.18273 0.73343,-0.73343 1.40759,-1.17312 0.68157,-0.43953 1.28904,-0.63102 0.6149,-0.19134 1.14089,-0.18032 z m -0.14817,0.14817 q -0.29633,-0.006 -0.94086,0.4341 -0.63711,0.4329 -1.62983,1.42562 -0.99271,0.99271 -1.22979,1.434 -0.23706,0.44128 0.0593,0.44749 0.30374,0.006 0.93345,-0.42669 0.63712,-0.43291 1.62983,-1.42562 0.99272,-0.99272 1.22979,-1.434 0.25188,-0.44854 -0.0519,-0.4549 z"
             style="stroke-width:0.784085"
             id="path10120" /><path
             d="m 148.18952,226.25155 -1.21497,1.21497 0.87419,0.0183 -0.14817,0.14817 -0.87419,-0.0183 -2.99296,2.99296 q -0.22225,0.22225 -0.23706,0.32027 -0.007,0.0906 0.15557,0.094 0.13335,0.003 0.363,-0.0907 0.23706,-0.10091 0.58526,-0.34322 l 0.0592,0.0693 q -0.4519,0.33089 -0.91122,0.5406 -0.45191,0.20988 -0.86677,0.20119 -0.24448,-0.005 -0.36299,-0.0757 -0.1259,-0.0632 -0.12594,-0.19173 0,-0.16639 0.18521,-0.40455 0.19257,-0.24556 0.57781,-0.6308 l 2.50401,-2.50401 -0.6223,-0.013 0.14817,-0.14817 0.6223,0.013 0.9779,-0.9779 q 0.31115,0.007 0.62235,-0.04 0.326,-0.0537 0.68156,-0.17481 z"
             style="stroke-width:0.784085"
             id="path10122" /><path
             d="m 151.59503,227.37569 q 0.23706,0.005 0.28151,0.11179 0.0519,0.0994 -0.037,0.25638 -0.0815,0.15713 -0.25187,0.32752 -0.27411,0.27411 -0.61489,0.4485 -0.32596,0.16713 -0.58526,0.1617 -0.25929,-0.005 -0.28151,-0.13448 -0.007,-0.1363 0.20743,-0.35114 0.20744,-0.20744 0.42969,-0.33892 0.23706,-0.13875 0.47412,-0.2321 -0.0741,-0.0318 -0.21443,0.003 -0.16296,0.0192 -0.38524,0.11295 -0.21484,0.0863 -0.4445,0.22516 -0.22225,0.13149 -0.43709,0.29338 -0.20747,0.15449 -0.35564,0.30266 l -1.96321,1.96321 q -0.3556,0.3556 -0.31115,0.4851 0.0519,0.12967 0.40006,0.13696 l -0.15558,0.15558 q -0.1634,-0.0106 -0.48156,-0.0252 -0.31117,-0.0216 -0.66677,-0.0291 -0.29633,-0.006 -0.61487,0.002 -0.31074,6.4e-4 -0.47412,0.005 l 0.15558,-0.15558 q 0.25929,0.005 0.47413,-0.10352 0.22225,-0.1088 0.5334,-0.41995 l 2.33362,-2.33362 q 0.33338,-0.33338 0.38524,-0.49112 0.0667,-0.16501 -0.20743,-0.17075 l 0.15557,-0.15557 q 0.21487,0.0272 0.43712,0.0318 0.31115,0.007 0.60005,-0.0101 0.3037,-0.0239 0.58526,-0.0709 l -0.68897,0.68897 q 0.28892,-0.19816 0.60008,-0.35805 0.31115,-0.15988 0.59266,-0.24474 0.28892,-0.0923 0.52599,-0.0873 z"
             style="stroke-width:0.784085"
             id="path10124" /><path
             d="m 154.67855,227.35962 q 0.65193,0.0137 0.63711,0.40666 -0.0148,0.39299 -0.88899,1.26717 l -2.43735,-0.0511 0.12596,-0.14107 1.51871,0.0318 q 0.37,-0.36285 0.62225,-0.66768 0.25925,-0.31223 0.33336,-0.49976 0.0741,-0.18754 -0.11112,-0.19142 -0.25929,-0.005 -0.77046,0.31665 -0.50377,0.32225 -1.29646,1.07712 l -0.0223,0.045 q -0.0959,0.0888 -0.20001,0.1849 -0.0963,0.0963 -0.20002,0.20002 -0.51118,0.51118 -0.68899,0.83269 -0.17039,0.32167 -0.0963,0.47448 0.0815,0.14542 0.31115,0.15023 0.15557,0.003 0.36306,-0.0378 0.22229,-0.0483 0.51858,-0.17066 0.30374,-0.12978 0.68898,-0.36375 l 0.089,0.0472 q -0.37042,0.27965 -0.82974,0.54232 -0.45931,0.26266 -0.92604,0.42685 -0.46672,0.16418 -0.88159,0.15549 -0.50376,-0.0105 -0.67416,-0.23346 -0.17039,-0.22291 0.0444,-0.66466 0.22225,-0.44159 0.89641,-1.11575 0.68898,-0.68898 1.37795,-1.14348 0.69638,-0.45435 1.32609,-0.66807 0.64453,-0.22097 1.17052,-0.20995 z"
             style="stroke-width:0.784085"
             id="path10126" /></g><g
           id="g11798"
           transform="matrix(0.91937899,0,0,1.0059941,9.5050983,-1.3733133)"><path
             d="m 161.11746,227.35962 q 0.65194,0.0137 0.63711,0.40666 -0.0148,0.39298 -0.88899,1.26716 l -2.43734,-0.0511 0.12596,-0.14107 1.51871,0.0318 q 0.37,-0.36285 0.62235,-0.66768 0.25925,-0.31223 0.33337,-0.49976 0.0741,-0.18754 -0.11113,-0.19142 -0.25929,-0.005 -0.77046,0.31665 -0.50377,0.32225 -1.29646,1.07712 l -0.0223,0.045 q -0.0959,0.0888 -0.20001,0.1849 -0.0963,0.0963 -0.20002,0.20002 -0.51118,0.51118 -0.68898,0.83269 -0.17039,0.32167 -0.0963,0.47448 0.0815,0.14542 0.31114,0.15023 0.15558,0.003 0.36306,-0.0378 0.22229,-0.0483 0.51858,-0.17066 0.30375,-0.12978 0.68898,-0.36375 l 0.089,0.0472 q -0.37042,0.27965 -0.82973,0.54232 -0.45932,0.26266 -0.92604,0.42685 -0.46673,0.16418 -0.88159,0.15549 -0.50377,-0.0105 -0.67416,-0.23346 -0.1704,-0.22291 0.0444,-0.66466 0.22225,-0.44159 0.89641,-1.11575 0.68898,-0.68898 1.37795,-1.14348 0.69639,-0.45435 1.3261,-0.66807 0.64452,-0.22097 1.17051,-0.20995 z"
             style="stroke-width:0.784085"
             id="path10128" /><path
             d="m 166.2323,227.36902 q 0.31115,0.007 0.42227,0.0921 0.12592,0.0783 0.10371,0.21396 -0.0222,0.14324 -0.19262,0.36658 -0.16295,0.22349 -0.54077,0.60131 l -1.99284,1.99284 q -0.31115,0.31115 -0.31856,0.42445 1e-5,0.11345 0.2593,0.11888 l -0.15558,0.15558 q -0.13376,-0.01 -0.40748,-0.0236 -0.26671,-0.0207 -0.54082,-0.0264 -0.28152,-0.006 -0.57043,0.003 -0.2737,0.001 -0.42226,0.006 l 0.15558,-0.15558 q 0.22225,0.005 0.42227,-0.1046 0.20003,-0.10927 0.51118,-0.42042 l 2.30399,-2.30399 q 0.18521,-0.18521 0.28156,-0.31933 0.10376,-0.14154 0.0815,-0.21764 -0.0148,-0.0835 -0.20742,-0.0875 -0.20003,-0.004 -0.48154,0.10336 -0.27411,0.10772 -0.57785,0.30557 -0.28892,0.1906 -0.5334,0.43508 l -2.05951,2.05951 q -0.31115,0.31115 -0.33338,0.42414 -0.0148,0.11314 0.20003,0.11764 l -0.15558,0.15558 q -0.12635,-0.01 -0.37784,-0.023 -0.23708,-0.0201 -0.51119,-0.0258 -0.28152,-0.006 -0.59265,0.003 -0.30333,7.9e-4 -0.4593,0.005 l 0.15558,-0.15558 q 0.25929,0.005 0.47413,-0.10352 0.22225,-0.1088 0.5334,-0.41995 l 2.33362,-2.33362 q 0.33338,-0.33338 0.38524,-0.49112 0.0667,-0.16501 -0.20743,-0.17075 l 0.15557,-0.15557 q 0.21487,0.0272 0.43712,0.0318 0.31115,0.007 0.60005,-0.0101 0.30371,-0.0239 0.58526,-0.0709 l -0.66675,0.66675 q 0.56304,-0.37395 1.03717,-0.52285 0.47414,-0.14891 0.86678,-0.14068 z"
             style="stroke-width:0.784085"
             id="path10130" /><path
             d="m 164.5098,232.67349 q -0.45931,-0.01 -0.74082,-0.0987 -0.2815,-0.0815 -0.32596,-0.24886 -0.0445,-0.15976 0.1852,-0.38942 0.22966,-0.22966 0.6223,-0.41053 0.38524,-0.17345 0.89641,-0.26863 l -0.0518,0.11993 q -0.25189,0.10818 -0.4445,0.23272 -0.19265,0.13211 -0.33341,0.27287 -0.31115,0.31115 -0.19261,0.48003 0.11853,0.17644 0.60748,0.18668 0.33338,0.007 0.68157,-0.0765 0.3556,-0.0833 0.68156,-0.25801 0.33338,-0.17454 0.59267,-0.43383 0.22225,-0.22225 0.21485,-0.38125 -0.0148,-0.15157 -0.50378,-0.16181 l -0.45931,-0.01 q -0.30374,-0.006 -0.4667,-0.0779 -0.15555,-0.0713 -0.14076,-0.21472 0.0222,-0.15081 0.24447,-0.37306 0.31115,-0.31115 0.79269,-0.54309 0.48154,-0.23195 1.17051,-0.42929 l 0.0148,0.0608 q -0.22966,0.086 -0.45932,0.18703 -0.21483,0.0938 -0.37041,0.2494 -0.23707,0.23707 0.0593,0.24328 l 0.80751,0.0169 q 0.40745,0.009 0.62971,0.11151 0.22967,0.10313 0.19262,0.32927 -0.0222,0.21887 -0.37042,0.56706 -0.36301,0.36301 -0.91122,0.6692 -0.54081,0.30634 -1.20756,0.48146 -0.67415,0.18252 -1.41499,0.167 z m 3.04484,-2.96918 q -0.42228,-0.009 -0.62971,-0.14177 -0.20744,-0.13293 -0.14076,-0.39625 0.0667,-0.26333 0.47413,-0.67079 0.40746,-0.40746 0.85937,-0.66271 0.45931,-0.26267 0.91123,-0.37422 0.45931,-0.11896 0.88159,-0.11011 0.42227,0.009 0.62971,0.14176 0.21483,0.12553 0.14075,0.39626 -0.0667,0.26333 -0.47414,0.67079 -0.40746,0.40746 -0.85936,0.66271 -0.45191,0.25526 -0.91122,0.37421 -0.45932,0.11896 -0.88159,0.11012 z m 0.13335,-0.13335 q 0.20002,0.004 0.5334,-0.21574 0.34078,-0.22733 0.93344,-0.81999 0.59267,-0.59267 0.7038,-0.81725 0.11853,-0.23198 -0.0815,-0.23617 -0.19262,-0.004 -0.54081,0.22314 -0.33338,0.21992 -0.92605,0.81259 -0.59266,0.59266 -0.71119,0.82465 -0.10372,0.22473 0.0889,0.22877 z m 2.74108,-1.56118 -0.0963,-0.055 q 0.40004,-0.28659 0.83714,-0.47409 0.4445,-0.18734 0.73343,-0.18129 0.23706,0.005 0.22225,0.1408 0,0.12857 -0.20744,0.33601 -0.22225,0.22225 -0.4519,0.33089 -0.22226,0.10124 -0.37042,0.0981 -0.12595,-0.003 -0.14817,-0.0939 -0.0148,-0.0911 0.14817,-0.26918 0.17041,-0.18552 0.60007,-0.4715 l 0.007,0.0456 q -0.38523,0.0978 -0.66675,0.23563 -0.27411,0.1304 -0.60748,0.35789 z"
             style="stroke-width:0.784085"
             id="path10132" /><path
             d="m 169.85478,231.32366 q -0.33338,-0.007 -0.42969,-0.13758 -0.0963,-0.13059 0.007,-0.3402 0.11112,-0.21701 0.36301,-0.4689 0.31855,-0.31855 0.65934,-0.51563 0.34818,-0.19692 0.70379,-0.31806 0.3556,-0.12112 0.68897,-0.19734 0.3408,-0.0761 0.64452,-0.14533 0.31857,-0.0765 0.56304,-0.17729 0.2593,-0.10803 0.42969,-0.27842 l 0.57785,-0.57785 q 0.19262,-0.19262 0.27408,-0.34218 0.0963,-0.15682 0.0445,-0.2411 -0.0444,-0.0841 -0.25187,-0.0885 -0.14817,-0.003 -0.34073,0.0382 -0.18517,0.0339 -0.37783,0.12823 0.13333,0.0784 0.0889,0.23633 -0.0296,0.15064 -0.22225,0.34326 -0.25188,0.25188 -0.57785,0.39633 -0.31856,0.1446 -0.55563,0.13963 -0.2667,-0.006 -0.24446,-0.17152 0.037,-0.17318 0.2741,-0.41024 0.21485,-0.21485 0.45931,-0.35343 0.25189,-0.13843 0.57044,-0.26034 0.32598,-0.11419 0.68157,-0.17481 0.36304,-0.0605 0.70382,-0.0534 0.34078,0.007 0.54079,0.087 0.20741,0.0725 0.20744,0.26151 0,0.17396 -0.20002,0.42692 -0.19258,0.24557 -0.5704,0.62339 l -2.01507,2.01507 q -0.18521,0.18521 -0.22229,0.26006 -0.0297,0.0675 0.0592,0.0693 0.0667,0.001 0.16304,-0.0345 0.1037,-0.0356 0.22966,-0.0859 l -0.0519,0.1275 q -0.28892,0.13009 -0.57044,0.19983 -0.26672,0.0625 -0.51861,0.0572 -0.2741,-0.006 -0.36299,-0.0833 -0.0815,-0.0849 -0.0222,-0.2198 0.0667,-0.13475 0.24445,-0.31255 -0.45932,0.2778 -0.87418,0.4355 -0.40745,0.15029 -0.77046,0.14269 z m 1.00012,-0.46311 q 0.14817,0.003 0.3334,-0.0611 0.20004,-0.0715 0.47414,-0.23211 l 1.51871,-1.51871 q -0.17783,0.10973 -0.38524,0.19615 -0.20744,0.0864 -0.4371,0.17994 -0.22225,0.0861 -0.45931,0.19458 -0.22966,0.10865 -0.46672,0.27008 -0.23708,0.16143 -0.46674,0.39109 -0.28893,0.28893 -0.30374,0.43232 -0.0148,0.14339 0.19262,0.14774 z"
             style="stroke-width:0.784085"
             id="path10134" /><path
             d="m 173.08769,232.67349 q -0.45931,-0.01 -0.74082,-0.0987 -0.2815,-0.0815 -0.32596,-0.24886 -0.0445,-0.15976 0.1852,-0.38942 0.22966,-0.22966 0.6223,-0.41053 0.38524,-0.17345 0.8964,-0.26863 l -0.0518,0.11993 q -0.25189,0.10818 -0.4445,0.23272 -0.19265,0.13211 -0.33341,0.27287 -0.31115,0.31115 -0.19261,0.48003 0.11853,0.17644 0.60748,0.18668 0.33338,0.007 0.68157,-0.0765 0.3556,-0.0833 0.68156,-0.25801 0.33338,-0.17455 0.59267,-0.43384 0.22225,-0.22225 0.21485,-0.38124 -0.0148,-0.15157 -0.50378,-0.16182 l -0.45931,-0.01 q -0.30375,-0.006 -0.4667,-0.0779 -0.15555,-0.0713 -0.14077,-0.21472 0.0222,-0.15081 0.24448,-0.37306 0.31115,-0.31115 0.79269,-0.54309 0.48154,-0.23195 1.17051,-0.42929 l 0.0148,0.0608 q -0.22966,0.086 -0.45932,0.18703 -0.21484,0.0938 -0.37042,0.2494 -0.23707,0.23707 0.0593,0.24328 l 0.80751,0.0169 q 0.40745,0.009 0.62971,0.11151 0.22967,0.10313 0.19262,0.32927 -0.0222,0.21887 -0.37042,0.56706 -0.36301,0.36301 -0.91122,0.6692 -0.54081,0.30634 -1.20756,0.48146 -0.67415,0.18252 -1.41499,0.167 z m 3.04484,-2.96918 q -0.42228,-0.009 -0.62971,-0.14177 -0.20744,-0.13293 -0.14076,-0.39625 0.0667,-0.26333 0.47413,-0.67079 0.40746,-0.40746 0.85937,-0.66271 0.45931,-0.26267 0.91123,-0.37422 0.45931,-0.11896 0.88159,-0.11011 0.42227,0.009 0.62971,0.14176 0.21483,0.12553 0.14075,0.39626 -0.0667,0.26333 -0.47414,0.67079 -0.40746,0.40746 -0.85936,0.66271 -0.45191,0.25526 -0.91122,0.37421 -0.45932,0.11896 -0.88159,0.11012 z m 0.13335,-0.13335 q 0.20002,0.004 0.5334,-0.21574 0.34078,-0.22733 0.93344,-0.81999 0.59267,-0.59267 0.7038,-0.81725 0.11853,-0.23198 -0.0815,-0.23617 -0.19262,-0.004 -0.54081,0.22314 -0.33338,0.21992 -0.92605,0.81259 -0.59266,0.59266 -0.71119,0.82465 -0.10372,0.22473 0.0889,0.22877 z m 2.74108,-1.56118 -0.0963,-0.055 q 0.40004,-0.28659 0.83714,-0.47409 0.4445,-0.18734 0.73343,-0.18129 0.23706,0.005 0.22225,0.1408 0,0.12857 -0.20744,0.33601 -0.22225,0.22225 -0.4519,0.33089 -0.22226,0.10124 -0.37042,0.0981 -0.12595,-0.003 -0.14817,-0.0939 -0.0148,-0.0911 0.14817,-0.26918 0.17041,-0.18552 0.60007,-0.4715 l 0.007,0.0456 q -0.38523,0.0978 -0.66675,0.23563 -0.27411,0.1304 -0.60748,0.35789 z"
             style="stroke-width:0.784085"
             id="path10136" /><path
             d="m 183.33019,227.35962 q 0.65193,0.0137 0.63711,0.40666 -0.0148,0.39298 -0.88899,1.26716 l -2.43734,-0.0511 0.12596,-0.14107 1.51871,0.0318 q 0.37,-0.36285 0.62235,-0.66768 0.25925,-0.31223 0.33336,-0.49976 0.0741,-0.18754 -0.11112,-0.19142 -0.25929,-0.005 -0.77046,0.31665 -0.50377,0.32225 -1.29646,1.07712 l -0.0223,0.045 q -0.0959,0.0888 -0.20001,0.1849 -0.0963,0.0963 -0.20002,0.20002 -0.51118,0.51118 -0.68898,0.83269 -0.1704,0.32167 -0.0963,0.47448 0.0815,0.14542 0.31115,0.15023 0.15557,0.003 0.36306,-0.0378 0.22229,-0.0483 0.51858,-0.17066 0.30374,-0.12978 0.68898,-0.36375 l 0.0889,0.0472 q -0.37042,0.27965 -0.82974,0.54232 -0.45931,0.26266 -0.92604,0.42685 -0.46672,0.16418 -0.88159,0.15549 -0.50376,-0.0105 -0.67416,-0.23346 -0.17039,-0.22291 0.0445,-0.66466 0.22225,-0.44159 0.89641,-1.11575 0.68898,-0.68898 1.37795,-1.14348 0.69638,-0.45435 1.32609,-0.66807 0.64453,-0.22097 1.17052,-0.20995 z"
             style="stroke-width:0.784085"
             id="path10138" /><path
             d="m 188.37829,227.34504 q 0.31115,0.007 0.42227,0.0921 0.11851,0.0781 0.10371,0.21396 -0.0222,0.14324 -0.20002,0.37398 -0.17035,0.22334 -0.54077,0.59376 l -1.99284,1.99284 q -0.31115,0.31115 -0.32598,0.4243 -0.0148,0.11313 0.22225,0.1181 l -0.15558,0.15558 q -0.12635,-0.01 -0.39266,-0.0233 -0.2519,-0.0204 -0.51119,-0.0258 -0.2667,-0.006 -0.54079,0.004 -0.26629,0.002 -0.40744,0.007 l 0.15558,-0.15558 q 0.20002,0.004 0.38523,-0.10538 0.19263,-0.10942 0.50378,-0.42057 l 2.30399,-2.30399 q 0.18521,-0.18521 0.28896,-0.31918 0.11116,-0.14138 0.0963,-0.21732 0,-0.0832 -0.17038,-0.0868 -0.19262,-0.004 -0.46672,0.10367 -0.27412,0.10772 -0.57785,0.30557 -0.28892,0.1906 -0.5334,0.43508 l -2.05951,2.05951 q -0.31115,0.31115 -0.34078,0.42399 -0.0296,0.11282 0.16299,0.11686 l -0.15558,0.15558 q -0.11153,-0.009 -0.35562,-0.0226 -0.22967,-0.0199 -0.48896,-0.0254 -0.28152,-0.006 -0.59265,0.003 -0.30334,8e-4 -0.4593,0.005 l 0.15558,-0.15558 q 0.25929,0.005 0.47413,-0.10351 0.22225,-0.10881 0.5334,-0.41996 l 2.33362,-2.33362 q 0.33338,-0.33338 0.38523,-0.49112 0.0667,-0.16501 -0.20742,-0.17075 l 0.15557,-0.15557 q 0.21486,0.0272 0.43711,0.0318 0.31115,0.007 0.60005,-0.0101 0.30371,-0.0239 0.58527,-0.071 l -0.66675,0.66675 q 0.54822,-0.3667 1.00753,-0.5159 0.46673,-0.15663 0.82974,-0.14903 z m 2.22991,0.0467 q 0.31115,0.007 0.42226,0.0921 0.11852,0.0781 0.10371,0.21396 -0.0222,0.14324 -0.20001,0.37398 -0.17045,0.22334 -0.54087,0.59376 l -1.99284,1.99284 q -0.31115,0.31115 -0.31856,0.42445 1e-5,0.11345 0.2593,0.11888 l -0.15558,0.15558 q -0.13376,-0.01 -0.40748,-0.0237 -0.26671,-0.0207 -0.54082,-0.0264 -0.2667,-0.006 -0.54079,0.004 -0.2663,0.002 -0.40745,0.007 l 0.15558,-0.15558 q 0.20003,0.004 0.38523,-0.10538 0.19263,-0.10942 0.50378,-0.42057 l 2.30399,-2.30399 q 0.18521,-0.18521 0.28156,-0.31934 0.11116,-0.14138 0.0889,-0.21747 -0.007,-0.0834 -0.20002,-0.0874 -0.19261,-0.004 -0.47412,0.11108 -0.28153,0.11513 -0.58526,0.31297 -0.29633,0.19802 -0.54822,0.44233 l 0.41491,-0.45268 q 0.64452,-0.44031 1.12606,-0.58906 0.48895,-0.14859 0.86678,-0.14068 z"
             style="stroke-width:0.784085"
             id="path10140" /><path
             d="m 194.81958,227.35962 q 0.65193,0.0137 0.63711,0.40666 -0.0148,0.39298 -0.88899,1.26716 l -2.43734,-0.0511 0.12596,-0.14107 1.51871,0.0318 q 0.37,-0.36285 0.62235,-0.66768 0.25925,-0.31223 0.33336,-0.49976 0.0741,-0.18754 -0.11112,-0.19142 -0.25929,-0.005 -0.77046,0.31665 -0.50377,0.32225 -1.29646,1.07712 l -0.0223,0.045 q -0.0959,0.0888 -0.20001,0.1849 -0.0963,0.0963 -0.20002,0.20002 -0.51118,0.51118 -0.68898,0.83269 -0.1704,0.32167 -0.0963,0.47448 0.0815,0.14542 0.31115,0.15023 0.15557,0.003 0.36306,-0.0378 0.22229,-0.0483 0.51858,-0.17066 0.30374,-0.12978 0.68898,-0.36375 l 0.0889,0.0472 q -0.37042,0.27965 -0.82974,0.54232 -0.45931,0.26266 -0.92604,0.42685 -0.46672,0.16418 -0.88159,0.15549 -0.50376,-0.0105 -0.67416,-0.23346 -0.17039,-0.22291 0.0445,-0.66466 0.22225,-0.44159 0.89641,-1.11575 0.68898,-0.68898 1.37795,-1.14348 0.69638,-0.45435 1.32609,-0.66807 0.64453,-0.22097 1.17052,-0.20995 z"
             style="stroke-width:0.784085"
             id="path10142" /><path
             d="m 199.93442,227.36902 q 0.31115,0.007 0.42226,0.0921 0.12593,0.0783 0.10371,0.21396 -0.0222,0.14324 -0.19261,0.36658 -0.16295,0.22349 -0.54077,0.60131 l -1.99284,1.99284 q -0.31115,0.31115 -0.31856,0.42445 0,0.11345 0.2593,0.11888 l -0.15558,0.15558 q -0.13376,-0.01 -0.40748,-0.0236 -0.26672,-0.0207 -0.54082,-0.0264 -0.28152,-0.006 -0.57043,0.003 -0.2737,0.001 -0.42226,0.006 l 0.15558,-0.15558 q 0.22225,0.005 0.42227,-0.1046 0.20003,-0.10927 0.51118,-0.42042 l 2.30399,-2.30399 q 0.18521,-0.18521 0.28156,-0.31933 0.10376,-0.14154 0.0815,-0.21764 -0.0148,-0.0835 -0.20742,-0.0875 -0.20003,-0.004 -0.48154,0.10336 -0.27411,0.10772 -0.57785,0.30557 -0.28892,0.1906 -0.5334,0.43508 l -2.05951,2.05951 q -0.31115,0.31115 -0.33338,0.42414 -0.0148,0.11314 0.20003,0.11764 l -0.15558,0.15558 q -0.12635,-0.01 -0.37784,-0.023 -0.23708,-0.0201 -0.51119,-0.0258 -0.28152,-0.006 -0.59265,0.003 -0.30333,7.9e-4 -0.4593,0.005 l 0.15558,-0.15558 q 0.25929,0.005 0.47413,-0.10352 0.22225,-0.1088 0.5334,-0.41995 l 2.33362,-2.33362 q 0.33338,-0.33338 0.38524,-0.49112 0.0667,-0.16501 -0.20743,-0.17075 l 0.15557,-0.15557 q 0.21487,0.0272 0.43712,0.0318 0.31115,0.007 0.60005,-0.0101 0.3037,-0.0239 0.58526,-0.0709 l -0.66675,0.66675 q 0.56304,-0.37395 1.03717,-0.52285 0.47414,-0.14891 0.86678,-0.14068 z"
             style="stroke-width:0.784085"
             id="path10144" /><path
             d="m 204.42325,226.25155 -1.21497,1.21497 0.87418,0.0183 -0.14817,0.14817 -0.87418,-0.0183 -2.99296,2.99296 q -0.22225,0.22225 -0.23706,0.32027 -0.007,0.0906 0.15558,0.094 0.13335,0.003 0.363,-0.0907 0.23706,-0.10091 0.58525,-0.34322 l 0.0593,0.0693 q -0.45191,0.33089 -0.91122,0.5406 -0.45191,0.20988 -0.86677,0.20119 -0.24448,-0.005 -0.36299,-0.0757 -0.12591,-0.0632 -0.12594,-0.19173 0,-0.16639 0.18521,-0.40455 0.19257,-0.24556 0.57781,-0.6308 l 2.50401,-2.50401 -0.6223,-0.013 0.14817,-0.14817 0.6223,0.013 0.9779,-0.9779 q 0.31115,0.007 0.62234,-0.04 0.326,-0.0537 0.68157,-0.17481 z"
             style="stroke-width:0.784085"
             id="path10146" /></g></g><text
         xml:space="preserve"
         transform="matrix(0.26458333,0,0,0.26458333,35.348471,147.963)"
         id="text12857"
         style="font-style:normal;font-variant:normal;font-weight:600;font-stretch:normal;font-size:28px;font-family:'Playfair Display';-inkscape-font-specification:'Playfair Display, Semi-Bold';font-variant-ligatures:normal;font-variant-caps:normal;font-variant-numeric:normal;font-variant-east-asian:normal;text-align:center;white-space:pre;shape-inside:url(#rect12859);display:inline;opacity:1;fill:#000000;fill-opacity:1;stroke:#ffffff;stroke-width:0;stroke-linecap:square;stroke-linejoin:miter;stroke-dasharray:none;stroke-opacity:1;paint-order:markers fill stroke;stop-color:#000000"><tspan
           x="293.89842"
           y="171.11635"
           id="tspan13432">By Solne MEDINA</tspan></text></g></g></svg>
